<svg width="100" height="100" viewBox="0 0 100 100" fill="none" xmlns="http://www.w3.org/2000/svg">
<path opacity="0.85" d="M82 18H18C15.7909 18 14 19.7909 14 22V82C14 84.2091 15.7909 86 18 86H82C84.2091 86 86 84.2091 86 82V22C86 19.7909 84.2091 18 82 18Z" stroke="#141413" stroke-width="1.5"/>
<path opacity="0.35" d="M82 18H18C15.7909 18 14 19.7909 14 22V36C14 38.2091 15.7909 40 18 40H82C84.2091 40 86 38.2091 86 36V22C86 19.7909 84.2091 18 82 18Z" fill="#141413"/>
<path opacity="0.35" d="M86 32H14V40H86V32Z" fill="#141413"/>
<path opacity="0.85" d="M34 14V26" stroke="#141413" stroke-width="2" stroke-linecap="round"/>
<path opacity="0.85" d="M66 14V26" stroke="#141413" stroke-width="2" stroke-linecap="round"/>
<g opacity="0.6">
<path d="M30 46H25C24.4477 46 24 46.4477 24 47V52C24 52.5523 24.4477 53 25 53H30C30.5523 53 31 52.5523 31 52V47C31 46.4477 30.5523 46 30 46Z" fill="#141413"/>
<path d="M45 46H40C39.4477 46 39 46.4477 39 47V52C39 52.5523 39.4477 53 40 53H45C45.5523 53 46 52.5523 46 52V47C46 46.4477 45.5523 46 45 46Z" fill="#141413"/>
<path d="M60 46H55C54.4477 46 54 46.4477 54 47V52C54 52.5523 54.4477 53 55 53H60C60.5523 53 61 52.5523 61 52V47C61 46.4477 60.5523 46 60 46Z" fill="#141413"/>
<path d="M75 46H70C69.4477 46 69 46.4477 69 47V52C69 52.5523 69.4477 53 70 53H75C75.5523 53 76 52.5523 76 52V47C76 46.4477 75.5523 46 75 46Z" fill="#141413"/>
<path d="M30 59H25C24.4477 59 24 59.4477 24 60V65C24 65.5523 24.4477 66 25 66H30C30.5523 66 31 65.5523 31 65V60C31 59.4477 30.5523 59 30 59Z" fill="#141413"/>
<path d="M45 59H40C39.4477 59 39 59.4477 39 60V65C39 65.5523 39.4477 66 40 66H45C45.5523 66 46 65.5523 46 65V60C46 59.4477 45.5523 59 45 59Z" fill="#141413"/>
<path d="M60 59H55C54.4477 59 54 59.4477 54 60V65C54 65.5523 54.4477 66 55 66H60C60.5523 66 61 65.5523 61 65V60C61 59.4477 60.5523 59 60 59Z" fill="#141413"/>
<path d="M75 59H70C69.4477 59 69 59.4477 69 60V65C69 65.5523 69.4477 66 70 66H75C75.5523 66 76 65.5523 76 65V60C76 59.4477 75.5523 59 75 59Z" fill="#141413"/>
<path d="M30 72H25C24.4477 72 24 72.4477 24 73V78C24 78.5523 24.4477 79 25 79H30C30.5523 79 31 78.5523 31 78V73C31 72.4477 30.5523 72 30 72Z" fill="#141413"/>
<path d="M45 72H40C39.4477 72 39 72.4477 39 73V78C39 78.5523 39.4477 79 40 79H45C45.5523 79 46 78.5523 46 78V73C46 72.4477 45.5523 72 45 72Z" fill="#141413"/>
<path d="M60 72H55C54.4477 72 54 72.4477 54 73V78C54 78.5523 54.4477 79 55 79H60C60.5523 79 61 78.5523 61 78V73C61 72.4477 60.5523 72 60 72Z" fill="#141413"/>
</g>
</svg>
