<svg width="100" height="100" viewBox="0 0 100 100" fill="none" xmlns="http://www.w3.org/2000/svg">
<path d="M55 27.1992L61.5996 30L69.5996 22.0996L77.0996 29.5996L69.1992 37.5996L72 44.1992L83.1992 44.2998V54.8994L72 55L69.1992 61.5996L77.0996 69.5996L69.5996 77.0996L61.5996 69.1992L55 72L54.8994 83.1992H44.2998L44.1992 72L37.5996 69.1992L29.5996 77.0996L22.0996 69.5996L30 61.5996L27.1992 55L16 54.8994V44.2998L27.1992 44.1992L30 37.5996L22.0996 29.5996L29.5996 22.0996L37.5996 30L44.1992 27.1992L44.2998 16H54.8994L55 27.1992ZM49.5996 36.5996C42.4199 36.5996 36.5996 42.4199 36.5996 49.5996C36.5996 56.7793 42.4199 62.5996 49.5996 62.5996C56.7793 62.5996 62.5996 56.7793 62.5996 49.5996C62.5996 42.4199 56.7793 36.5996 49.5996 36.5996Z" fill="#747474"/>
</svg>
