<svg width="360" height="360" viewBox="0 0 360 360" fill="none" xmlns="http://www.w3.org/2000/svg">
<path d="M42.625 237.611C42.4429 237.011 42.1322 236.436 41.6605 236.013C41.1893 235.589 40.6033 235.351 40 235.351C39.3967 235.351 38.8107 235.589 38.3395 236.013C37.8678 236.436 37.5571 237.011 37.375 237.611C37.375 237.611 37.375 237.611 37.375 237.611C36.8165 239.846 36.548 241.934 36.4389 244.113C36.3514 245.992 36.4082 247.891 36.6463 249.819C37.099 253.708 38.1139 257.442 39.3197 260.88C41.134 265.007 42.6675 266.624 44.2221 268.78C45.7293 270.755 47.1398 272.629 48.1111 274.258C48.6454 275.157 49.1436 276.055 49.6911 277.07C49.9704 277.584 50.2543 278.12 50.6473 278.801C51.0856 279.493 51.4232 280.311 52.9119 281.803C54.1863 283.116 56.5061 283.92 57.9934 283.869C59.5246 283.867 60.4375 283.523 61.1273 283.251C62.47 282.669 63.091 282.149 63.7161 281.631C66.8327 278.825 67.3898 275.874 67.86 274.09C68.2667 272.238 68.4861 270.842 68.6282 270.399C70.1704 265.729 70.2377 262.156 70.9497 260.46C72.5781 256.334 72.4399 253.326 72.883 251.719C73.6524 248.718 74.3371 245.597 74.5542 242.103C74.2821 241.259 76.3961 236.679 76.44 232.554C76.2442 231.092 77.4461 229.071 78.7535 225.271C79.7023 221.966 79.9954 219.157 80.8804 216.924C80.9594 216.802 81.0888 216.398 81.1397 216.262C81.2597 215.701 81.2923 215.241 81.3111 214.865C81.3387 214.209 81.3288 213.783 81.3515 213.414C81.3713 212.588 81.7462 211.495 82.2708 210.317C82.5452 209.711 82.6168 209.018 82.4316 208.369C82.2467 207.721 81.8256 207.172 81.2527 206.84C80.6797 206.508 79.9947 206.415 79.3399 206.576C78.6849 206.738 78.1192 207.144 77.7292 207.683C77.7292 207.683 77.7292 207.683 77.7292 207.683C76.8783 208.9 75.941 210.3 75.4122 212.2C75.2089 212.925 75.0944 213.61 74.9842 214.061C74.9223 214.319 74.8587 214.492 74.8119 214.548L75.0712 213.886C73.1488 216.982 72.2875 220.14 71.1374 222.445C70.3436 224.17 67.663 227.063 66.9903 231.646C66.6479 234.127 65.0725 235.313 63.8276 240.941C63.4028 243.205 62.5934 245.708 61.6564 248.231C60.4792 251.836 60.1703 254.427 59.5473 255.317C57.365 260.111 57.1703 263.798 56.2142 265.751C55.3121 268.143 55.0938 269.751 54.7657 270.822C54.6197 271.343 54.4739 271.694 54.4234 271.757C54.3696 271.834 54.4723 271.54 54.8536 271.197C55.0165 271.069 55.1358 270.903 55.9181 270.555C56.3282 270.397 56.9429 270.136 58.1704 270.131C59.3551 270.08 61.3706 270.772 62.4275 271.871C62.7754 272.206 62.8312 272.319 62.8341 272.308C62.831 272.296 62.7588 272.173 62.6693 272.005C62.4858 271.663 62.231 271.158 61.9631 270.631C61.4233 269.566 60.8099 268.397 60.1616 267.262C58.5771 264.518 56.9126 262.348 55.3558 260.293C53.8498 258.34 51.9921 256.005 51.5773 255.496C49.9535 252.492 48.3113 249.694 46.7779 246.828C46.0632 245.525 45.3759 244.136 44.7182 242.694C43.9653 241.045 43.2235 239.255 42.625 237.611Z" fill="#6CCA65"/>
<path d="M80 205.25C79.1096 205.45 78.2557 205.878 77.6261 206.56C76.9966 207.241 76.6429 208.107 76.6429 209C76.6429 209.893 76.9966 210.76 77.6261 211.441C78.2557 212.122 79.1096 212.551 80 212.75C79.666 212.76 79.5622 212.746 79.4738 212.746C79.3921 212.745 79.3564 212.749 79.333 212.757C79.2895 212.774 79.302 212.807 79.3246 212.846C79.3743 212.926 79.4752 213.033 79.58 213.15C79.7938 213.386 80.0367 213.662 80.2683 213.954C79.8194 214.058 80.5985 216.764 80.89 219.36C81.0951 220.719 81.3359 222.176 81.6682 223.692C82.4658 227.209 83.4173 230.303 83.4668 232.203C84.5744 238.06 87.1555 242.073 87.5353 243.983C88.7456 247.726 90.0296 251.258 90.7129 254.128C90.9273 254.887 91.1596 255.733 91.8031 257.054C92.1302 257.709 92.592 258.52 93.3169 259.411C94.0153 260.293 95.0728 261.207 95.7128 261.648C97.132 262.602 95.5599 261.634 95.0255 260.963C94.404 260.265 94.265 259.93 94.2014 259.834C94.0624 259.549 94.2687 260.052 94.4571 260.885C94.9364 262.894 95.5912 266.402 96.9968 269.823C97.9663 271.742 98.058 275.127 101.781 280.909C102.077 281.314 102.44 281.853 103.238 282.722C104.092 283.498 105.223 285.175 109.229 286.204C111.851 286.804 114.614 286.172 116.253 285.322C117.948 284.469 118.901 283.547 119.607 282.795C120.972 281.27 121.476 280.187 121.925 279.249C125.246 272.005 125.767 264.547 126.719 259.785C127.341 256.797 130.969 248.924 132.078 241.778C132.832 237.293 133.641 232.974 134.56 228.4C135.282 224.724 135.985 221.077 136.703 217.445C137.243 214.588 138.065 212.251 139.622 209.198C141.779 205.014 142.362 201.328 143.102 199.491C144.174 196.671 146.428 192.986 148.631 189.496C152.089 184.05 155.637 178.536 159.136 173.042C161.451 169.524 161.496 166.371 161.857 164.613C162.162 162.754 162.515 161.527 163.289 160.17C164.859 157.634 165.967 155.292 167.121 153.035C167.946 151.41 168.761 149.834 169.601 148.448L169.396 148.708C169.79 148.146 170.32 147.534 171.005 146.628C171.829 145.492 172.179 144.853 172.766 144.039C173.324 143.256 173.601 142.291 173.499 141.324C173.397 140.358 172.931 139.475 172.194 138.862C171.457 138.249 170.503 137.951 169.535 138.027C168.566 138.103 167.667 138.551 167 139.243C167 139.243 167 139.243 167 139.243C166.247 140.013 165.386 141.055 164.901 141.526C164.478 141.939 163.791 142.546 163.068 143.295C163.029 143.348 162.898 143.499 162.863 143.555C161.523 145.182 160.395 146.789 159.305 148.353C157.813 150.497 156.393 152.633 155.01 154.301C151.15 158.798 150.446 166.341 149.567 166.101C145.418 171.163 141.301 176.227 137.21 181.408C134.494 184.931 131.743 188.291 129.192 193.262C127.323 197.265 126.613 199.952 125.589 201.356C123.477 204.699 121.333 209.203 120.218 213.551C119.216 217.193 118.254 220.832 117.305 224.439C116.113 228.882 114.941 233.611 113.922 238.222C112.849 243.395 110.553 246.693 107.856 255.683C106.359 262.609 105.786 267.303 103.948 270.975C104.074 270.731 104.197 270.322 105.044 269.363C105.491 268.891 106.147 268.222 107.499 267.539C108.796 266.859 111.163 266.301 113.408 266.818C116.763 267.7 117.375 268.914 117.782 269.215C118.133 269.6 118.106 269.605 118.022 269.473C118.018 269.78 117.064 266.48 115.523 262.359C114.947 260.931 114.605 259.286 113.903 256.21C113.565 254.876 113.188 253.208 112.055 250.918C111.608 250.057 111.035 248.991 109.847 247.661C108.756 246.344 106.445 244.938 107.164 245.418C107.458 245.618 108.194 246.248 108.625 246.803C109.081 247.367 109.321 247.814 109.456 248.092C109.717 248.652 109.678 248.697 109.653 248.638C108.162 244.012 106.282 240.398 104.534 236.927C101.92 231.945 99.8806 229.774 99.0983 228.283C97.5574 224.022 95.6405 221.4 94.2146 218.975C93.5728 217.902 92.9328 216.736 92.2455 215.48C90.6699 213.053 90.1286 210.019 85.2906 206.681C84.6699 206.385 84.0309 206.118 83.3257 205.879C82.9702 205.76 82.6026 205.647 82.1701 205.539C81.9518 205.485 81.7209 205.432 81.4278 205.377C81.1077 205.331 80.8718 205.247 80 205.25Z" fill="#6CCA65"/>
<path d="M174.258 141.044C173.742 140.049 172.926 139.205 171.89 138.731C170.855 138.257 169.697 138.188 168.648 138.547C167.598 138.906 166.725 139.669 166.197 140.678C165.668 141.687 165.541 142.854 165.742 143.956C165.742 143.956 165.742 143.956 165.742 143.956C166.264 145.453 166.557 145.743 166.838 146.271C167.109 146.732 167.347 147.113 167.573 147.477C168.022 148.199 168.425 148.842 168.805 149.476C169.562 150.737 170.215 151.934 170.731 153.095C172.079 156.044 173.316 159.336 174.483 162.629C175.174 164.588 175.842 166.566 176.495 168.558C177.97 173.002 179.569 177.475 181 181.666C182.725 187.826 185.235 195.666 187.813 202.577C189.599 207.353 191.775 212.665 195.056 217.785C195.731 218.88 196.077 219.696 196.093 219.915C196.115 220.054 196.138 220.182 196.235 220.77C196.328 221.34 196.474 222.322 196.672 223.398C197.526 228.186 198.957 233.419 200.789 238.023C201.231 239.16 201.663 240.218 202.036 241.158C203.172 243.973 204.429 247.473 206.221 250.994C207.74 254.042 208.729 256.567 209.334 259.386C210.185 264.501 213.96 271.129 214.471 272.248C214.579 272.483 214.746 272.919 215.12 273.797C215.621 274.704 215.706 275.98 218.609 279.081C219.807 280.19 221.596 281.849 225.342 282.638C229.167 283.461 233.186 281.928 234.926 280.643C238.538 277.947 238.856 276.514 239.637 275.327C240.848 273.038 241.243 271.649 241.69 270.244C242.502 267.519 242.962 265.216 243.378 262.895C244.705 256.053 244.994 248.537 245.105 242.216C245.14 240.381 245.258 239.202 245.633 237.644C245.977 236.232 247.254 231.993 247.345 228.375C247.427 224.835 249.783 218.081 252.142 211.86C255.008 204.329 259.88 196.385 265.17 188.079C270.142 180.053 275.438 172.112 280.877 164.26C285.824 157.415 291.252 147.613 294.065 141.448C296.959 136.672 298.384 130.496 299.081 128.806C300.635 125.387 302.413 121.797 304.177 118.405C305.576 115.729 307.073 113 308.564 110.15C312.034 103.192 314.74 96.8938 317.612 90.2423C320.676 83.1668 323.613 75.3293 326.025 68.7539C327.94 64.2601 329.429 59.7779 330.938 55.5029C331.477 53.9685 332.015 52.4571 332.568 50.9309C332.615 50.8319 332.715 50.5213 332.752 50.418C333.72 46.599 334.637 42.161 334.911 38.28C334.92 38.2345 334.934 38.0959 334.941 38.05C334.99 37.2331 334.982 36.8916 335.01 36.5899C335.035 36.2925 335.091 35.9854 335.204 35.6057C335.565 34.4973 335.514 33.2825 335.025 32.2143C334.535 31.1461 333.654 30.3143 332.566 29.899C331.479 29.4836 330.267 29.5159 329.191 29.986C328.114 30.4559 327.266 31.3274 326.796 32.3943C326.796 32.3943 326.796 32.3943 326.796 32.3943C326.121 33.7979 325.73 36.2296 325.632 37.0757L325.662 36.8457C324.993 40.6781 323.985 43.7878 322.717 47.4092L322.9 46.8963C322.189 48.4015 321.494 49.8947 320.803 51.4C318.855 55.6379 317.06 59.7364 315.021 63.5425C311.442 71.0872 308.46 77.4125 304.87 84.1754C301.61 90.3362 298.159 96.8374 294.878 102.356C293.291 104.916 291.601 107.531 289.916 110.263C287.709 113.867 285.663 117.367 283.627 121.149C280.862 127.225 280.416 129.529 278.677 131.978C273.65 140.937 270.448 145.874 265.118 152.683C259.084 160.463 253.201 168.406 247.6 176.608C242.084 184.553 236.085 193.076 231.557 203.694C228.942 210.399 225.658 216.647 224.584 227.036C224.473 228.241 224.296 228.631 223.382 231.847C222.514 234.928 222.043 238.544 221.945 241.519C221.667 247.867 221.386 253.035 220.214 258.632C219.882 260.345 219.477 262.066 219.088 263.272C218.994 263.566 218.903 263.816 218.841 263.967C218.785 264.111 218.734 264.176 218.872 263.91C218.946 263.774 219.068 263.545 219.388 263.115C219.743 262.677 220.185 262.014 221.67 260.975C222.99 259.979 226.486 258.612 229.799 259.331C233.033 260.019 234.405 261.384 235.219 262.121C236.345 263.253 236.634 263.882 236.825 264.192C236.995 264.504 237.001 264.541 236.97 264.46C236.895 264.282 236.655 263.645 236.308 262.827C233.543 257.005 233.254 256.93 232.706 254.395C231.695 249.381 229.73 244.413 227.684 240.316C226.545 238.081 225.615 235.499 224.349 232.324C223.91 231.216 223.511 230.234 223.155 229.318C221.759 225.775 220.807 222.544 219.955 218.731C219.654 217.592 219.396 215.161 218.198 211.936C217.018 208.842 215.54 206.617 214.247 204.794C211.966 201.771 209.977 198.109 207.824 193.866C204.522 187.353 201.691 181.54 198.024 174.098C195.661 169.842 193.306 165.93 190.93 161.95C189.785 160.014 188.602 158.098 187.365 156.194C185.266 152.98 183.077 149.827 180.435 146.687C179.246 145.265 177.999 144.018 176.787 142.893C176.183 142.333 175.585 141.801 175.05 141.328C174.785 141.094 174.533 140.87 174.347 140.713C174.254 140.635 174.178 140.574 174.145 140.574C174.112 140.589 174.125 140.601 174.258 141.044Z" fill="#6CCA65"/>
</svg>
